<svg xmlns="http://www.w3.org/2000/svg" viewBox="0 0 50 50"><path fill="#fe9526" d="m40.802 9.205.965-1.274c.41-.513.069-1.275-.59-1.29a71.047 71.047 0 0 0-9.258.368c-.598.06-.907.748-.57 1.238 5.41 7.788 4.405 7.757 6.901 4.451l.585.463c10.663 9.089 5.361 28.213-9.462 29.131-1.043.094-.76 1.202-.842 3.433a.787.787 0 0 0 .823.834C47.97 45.513 55.05 21.365 41.448 9.732l-.646-.527z" class="colorf34b43 svgShape"/><path fill="#595bd4" d="M28.072 44.405c.033-1.168-.108-2.488 1.256-2.61 14.35-.89 19.555-19.413 9.183-28.253l-.167-.132-.194.262c-2.362 3.203-2.35 1.86-7.211-5.14-.557-.808-.043-1.923.93-2.02 3.373-.34 5.977-.441 9.319-.372.493.012.928.296 1.135.74.47 1.01-.494 1.661-.831 2.242l.272.223C55.68 21.244 48.52 45.983 29.382 47.058c-1.609-.305-1.357-1.029-1.31-2.653zm11.074-31.636c11.053 9.42 5.501 29.08-9.742 30.022-.152.014-.282.138-.29.287-.096 2.52-.187 2.983.193 2.983v.5l.016-.5c18.263-1.029 25.018-24.646 11.8-35.949-.22-.249-1.142-.65-.72-1.209.737-1.1 1.156-1.293 1.014-1.6-.273-.583-8.804.139-9.448.204-.218.021-.33.278-.208.457 3.165 4.556 4.165 6.275 4.537 6.343.391-.085 1.441-2.047 1.89-2.105.347-.04.723.425.958.567z" class="color000000 svgShape"/><g fill="#595bd4" class="color000000 svgShape"><path fill="#53d86a" d="m9.212 40.799-.965 1.274c-.411.513-.069 1.274.59 1.29 1.636.035 3.27.025 4.899-.042 6.484-.3 5.662-.491 3.57-3.534-3.869-5.587-3.157-5.641-5.543-2.482-.109-.123-4.026-2.681-5.58-8.413C3.36 18.508 10.445 8.342 20.64 7.712c1.043-.094.76-1.202.842-3.434a.787.787 0 0 0-.823-.834C7.742 4.17-1.3 17.05 2.26 30.236c1.881 6.98 6.848 10.445 6.952 10.563z" class="colord1b789 svgShape"/><path d="M8.826 43.863c-1.071-.026-1.64-1.266-.97-2.103l.668-.881c-8.437-6.95-10.13-20.036-3.4-29.354 6.225-8.621 15.617-8.61 15.517-8.58.857 0 1.383.662 1.341 1.363-.071 1.98.275 3.762-1.297 3.901C6.05 9.117 1.266 28.174 11.67 36.594c2.638-3.574 2.564-1.975 6.59 3.68 2.4 3.378.425 3.318-4.5 3.546-1.04.043-3.283.078-4.933.043zM5.934 12.11c-6.546 9.063-4.68 21.78 3.484 28.212.752.593-.09.979-.773 2.053-.168.209-.035.483.204.488 1.378.029 9 .006 9.486-.578.004-.154-4.267-6.524-4.62-6.589-.167.037-.634.67-1.047 1.23-.422.501-.504.865-.886.879a.486.486 0 0 1-.394-.17C-.084 28.95 4.788 8.193 20.61 7.213c.4-.036.3-.466.332-1.643.04-1.405.078-1.415-.038-1.538-.031-.033-9.405.372-14.97 8.079z" class="color000000 svgShape"/></g></svg>